<?xml version="1.0" encoding="UTF-8" standalone="no"?>
<!-- Created with Inkscape (http://www.inkscape.org/) -->

<svg
   xmlns:dc="http://purl.org/dc/elements/1.1/"
   xmlns:cc="http://creativecommons.org/ns#"
   xmlns:rdf="http://www.w3.org/1999/02/22-rdf-syntax-ns#"
   xmlns:svg="http://www.w3.org/2000/svg"
   xmlns="http://www.w3.org/2000/svg"
   xmlns:sodipodi="http://sodipodi.sourceforge.net/DTD/sodipodi-0.dtd"
   xmlns:inkscape="http://www.inkscape.org/namespaces/inkscape"
   width="85.951782mm"
   height="75.595245mm"
   viewBox="0 0 85.951782 75.595245"
   version="1.1"
   id="svg7928"
   inkscape:version="0.92.1 r15371"
   sodipodi:docname="rock2.svg">
  <defs
     id="defs7922" />
  <sodipodi:namedview
     id="base"
     pagecolor="#ffffff"
     bordercolor="#666666"
     borderopacity="1.0"
     inkscape:pageopacity="0.0"
     inkscape:pageshadow="2"
     inkscape:zoom="1.4"
     inkscape:cx="68.381555"
     inkscape:cy="92.142866"
     inkscape:document-units="mm"
     inkscape:current-layer="layer1"
     showgrid="false"
     inkscape:window-width="1920"
     inkscape:window-height="1027"
     inkscape:window-x="1912"
     inkscape:window-y="-8"
     inkscape:window-maximized="1"
     fit-margin-top="0"
     fit-margin-left="0"
     fit-margin-right="0"
     fit-margin-bottom="0" />
  <metadata
     id="metadata7925">
    <rdf:RDF>
      <cc:Work
         rdf:about="">
        <dc:format>image/svg+xml</dc:format>
        <dc:type
           rdf:resource="http://purl.org/dc/dcmitype/StillImage" />
        <dc:title></dc:title>
      </cc:Work>
    </rdf:RDF>
  </metadata>
  <g
     inkscape:label="Layer 1"
     inkscape:groupmode="layer"
     id="layer1"
     transform="translate(-89.429166,-97.617554)">
    <path
       style="fill:#7c8794;fill-opacity:1;stroke:none;stroke-width:0.26458332px;stroke-linecap:butt;stroke-linejoin:miter;stroke-opacity:1"
       d="m 106.21131,164.51935 -12.662203,-5.66964 -3.590774,-22.48959 3.023809,-23.62351 19.654758,-12.6622 14.93006,1.32291 4.91369,-3.779766 14.17411,6.236616 10.96131,14.93006 1.13393,7.74851 11.52827,8.12649 5.10268,11.15029 -3.96874,22.86757 -3.96876,0.75595 -13.22916,3.59077 -15.49703,0.18899 -25.3244,-4.15774 z"
       id="path8473"
       inkscape:connector-curvature="0"
       sodipodi:nodetypes="cccccccccccccccccc" />
    <path
       style="fill:#4c5159;fill-opacity:1;stroke:none;stroke-width:0.26458332px;stroke-linecap:butt;stroke-linejoin:miter;stroke-opacity:1"
       d="m 105.68214,164.51936 -12.6622,-5.66964 -3.590774,-22.4896 3.023809,-23.62351 19.654755,-12.6622 5.48066,29.10417 -20.977676,-4.15775 2.645834,12.09525 11.339282,4.53572 -12.095237,1.13392 v 6.99257 l 12.095237,8.12647 12.28422,6.42561 16.63096,5.66964 14.70328,3.0238 -16.0262,0.18899 -25.3244,-4.15773 z"
       id="path8473-1"
       inkscape:connector-curvature="0"
       sodipodi:nodetypes="cccccccccccccccccc" />
    <path
       style="fill:#bfc5ce;fill-opacity:1;stroke:none;stroke-width:0.26458332px;stroke-linecap:butt;stroke-linejoin:miter;stroke-opacity:1"
       d="m 132.48065,97.617554 5.48066,13.040186 -11.1503,12.6622 17.76488,14.74107 -0.75595,19.84375 14.74107,-5.66964 1.13393,10.77232 13.60714,-21.73363 -6.70908,0.66146 3.68527,-7.27604 -11.52827,-8.12649 -6.4256,5.19718 5.29167,-12.94569 -5.48065,-7.46503 -5.48066,-7.46503 -14.17411,-6.236616 v 0"
       id="path8498"
       inkscape:connector-curvature="0"
       sodipodi:nodetypes="ccccccccccccccccc" />
    <path
       style="fill:#95a1b3;fill-opacity:1;stroke:none;stroke-width:0.26458332px;stroke-linecap:butt;stroke-linejoin:miter;stroke-opacity:1"
       d="m 126.81101,123.31994 17.76488,14.74107 -0.75595,19.84375 14.74107,-5.66964 4.34673,4.91369 10.39434,-15.875 2.07887,4.53571 -3.96874,22.86757 -17.19792,4.34672 -14.70328,-3.0238 -9.29821,-11.3393 6.04761,-13.60714 -9.4494,-21.73363 v 0"
       id="path8500"
       inkscape:connector-curvature="0"
       sodipodi:nodetypes="cccccccccccccc" />
  </g>
</svg>
